<svg xmlns="http://www.w3.org/2000/svg" viewBox="0 0 100 100"><path d="M50 22 L50 12" stroke="#1e293b" stroke-width="3"/><circle cx="50" cy="10" r="4.5" fill="#f87171" stroke="#1e293b" stroke-width="3" stroke-linejoin="round" stroke-linecap="round"/><g stroke="#1e293b" stroke-width="3" stroke-linejoin="round" stroke-linecap="round" fill="#94a3b8"><rect x="13" y="36" width="9" height="17" rx="3"/><rect x="78" y="36" width="9" height="17" rx="3"/><rect x="32" y="66" width="36" height="24" rx="7"/></g><rect x="21" y="22" width="58" height="46" rx="12" fill="#cbd5e1" stroke="#1e293b" stroke-width="3" stroke-linejoin="round" stroke-linecap="round"/><g stroke="#1e293b" stroke-width="2.5" fill="#0ea5e9"><circle cx="38" cy="42" r="7.5"/><circle cx="62" cy="42" r="7.5"/></g><g fill="#fff"><circle cx="40" cy="40" r="2.2"/><circle cx="64" cy="40" r="2.2"/></g><rect x="37" y="54" width="26" height="7" rx="3.5" fill="#1e293b"/><path d="M44 54 V61 M50 54 V61 M56 54 V61" stroke="#cbd5e1" stroke-width="1.5"/><circle cx="50" cy="78" r="4.5" fill="#facc15" stroke="#1e293b" stroke-width="2"/><path d="M27 30 Q30 27 34 27" fill="none" stroke="#fff" stroke-width="3.5" stroke-linecap="round" opacity="0.75"/></svg>
